<?xml version="1.0" encoding="utf-8"?>
<!-- Generator: Adobe Illustrator 16.0.0, SVG Export Plug-In . SVG Version: 6.00 Build 0)  -->
<!DOCTYPE svg PUBLIC "-//W3C//DTD SVG 1.1//EN" "http://www.w3.org/Graphics/SVG/1.1/DTD/svg11.dtd">
<svg version="1.1" id="Layer_1" xmlns="http://www.w3.org/2000/svg" xmlns:xlink="http://www.w3.org/1999/xlink" x="0px" y="0px"
	 width="455.251px" height="205.189px" viewBox="0 0 455.251 205.189" enable-background="new 0 0 455.251 205.189"
	 xml:space="preserve">
<g>
	<path fill="#1D1D1B" d="M443.42,75.996c-2.151,0.977-3.706,2.533-4.681,4.678l-48.227,112.542c-0.979,2.139-0.979,4.33,0,6.572
		c0.972,2.235,2.529,3.852,4.674,4.824c1.556,0.396,2.734,0.577,3.504,0.577c3.699,0,6.337-1.741,7.9-5.263l47.927-112.532
		c0.978-2.142,0.978-4.329,0-6.573c-0.974-2.241-2.523-3.848-4.676-4.825C447.703,75.02,445.553,75.02,443.42,75.996
		 M358.356,80.673c-0.979-2.145-2.529-3.701-4.68-4.678c-2.14-0.976-4.284-0.976-6.417,0c-2.157,0.977-3.713,2.584-4.687,4.825
		c-0.974,2.244-0.974,4.431,0,6.573l47.807,111.589c1.557,3.311,4.188,4.976,7.89,4.976c1.563,0,2.644-0.205,3.221-0.59
		c2.139-0.975,3.699-2.585,4.673-4.818c0.975-2.242-6.538-22.014-7.51-24.164L358.356,80.673z M310.479,77.604
		c-1.629,1.661-2.439,3.752-2.439,6.284v112.541c0,2.337,0.811,4.387,2.439,6.134c1.627,1.756,3.688,2.627,6.177,2.627
		c2.295,0,4.266-0.871,5.893-2.627c1.63-1.747,2.446-3.797,2.446-6.134V83.888c0-2.532-0.816-4.623-2.446-6.284
		c-1.627-1.655-3.598-2.484-5.893-2.484C314.167,75.12,312.105,75.948,310.479,77.604 M16.958,97.331V14.909
		c0-2.343-0.835-4.332-2.488-5.993c-1.661-1.651-3.655-2.487-5.993-2.487c-2.339,0-4.344,0.836-5.992,2.487
		C0.824,10.577,0,12.565,0,14.909V196.71c0,2.345,0.824,4.345,2.485,6.003c1.648,1.652,3.653,2.476,5.992,2.476
		c2.338,0,4.332-0.823,5.993-2.476c1.653-1.658,2.488-3.658,2.488-6.003v-82.425h72.719c2.34,0,4.338-0.823,5.99-2.487
		c1.655-1.653,2.484-3.653,2.484-5.99c0-2.344-0.829-4.333-2.484-5.994c-1.651-1.646-3.65-2.484-5.99-2.484H16.958z M130.322,8.916
		c-1.733,1.662-2.586,3.65-2.586,5.993V196.71c0,2.345,0.853,4.345,2.586,6.003c1.718,1.652,3.724,2.476,6.023,2.476
		c2.3,0,4.269-0.823,5.894-2.476c1.626-1.658,2.445-3.658,2.445-6.003V14.909c0-2.343-0.819-4.332-2.445-5.993
		c-1.625-1.651-3.593-2.487-5.894-2.487C134.046,6.428,132.041,7.264,130.322,8.916"/>
	<path fill="#46B974" d="M113.169,113.277c4.677,0,8.472-3.791,8.472-8.471c0-4.675-3.794-8.463-8.472-8.463
		c-4.678,0-8.466,3.788-8.466,8.463C104.703,109.486,108.491,113.277,113.169,113.277"/>
	<path fill="#1D1D1B" d="M271.798,140.56c0,26.436-21.544,47.944-48.037,47.944c-26.488,0-48.042-21.508-48.042-47.944
		c0-26.441,21.554-47.951,48.042-47.951C250.253,92.609,271.798,114.118,271.798,140.56 M288.854,196.669V8.522
		c0-2.349-0.816-4.358-2.457-6.026C284.764,0.835,282.787,0,280.474,0c-2.499,0-4.572,0.835-6.207,2.496
		c-1.64,1.668-2.457,3.677-2.457,6.026v88.833c-11.848-13.149-28.995-21.43-48.049-21.43c-35.653,0-64.663,28.988-64.663,64.635
		c0,35.641,29.01,64.629,64.663,64.629c19.054,0,36.201-8.285,48.049-21.432v12.912c0,2.35,0.817,4.363,2.457,6.027
		c1.635,1.664,3.708,2.492,6.207,2.492c2.313,0,4.29-0.828,5.924-2.492C288.038,201.033,288.854,199.019,288.854,196.669"/>
</g>
</svg>
